<?xml version="1.0" encoding="UTF-8" standalone="no"?>
<!-- Created with Inkscape (http://www.inkscape.org/) -->

<svg
   xmlns:dc="http://purl.org/dc/elements/1.1/"
   xmlns:cc="http://creativecommons.org/ns#"
   xmlns:rdf="http://www.w3.org/1999/02/22-rdf-syntax-ns#"
   xmlns:svg="http://www.w3.org/2000/svg"
   xmlns="http://www.w3.org/2000/svg"
   xmlns:sodipodi="http://sodipodi.sourceforge.net/DTD/sodipodi-0.dtd"
   xmlns:inkscape="http://www.inkscape.org/namespaces/inkscape"
   id="svg4206"
   version="1.1"
   inkscape:version="0.91 r13725"
   width="375"
   height="375"
   viewBox="0 0 375 375"
   sodipodi:docname="logo.svg">
  <metadata
     id="metadata4212">
    <rdf:RDF>
      <cc:Work
         rdf:about="">
        <dc:format>image/svg+xml</dc:format>
        <dc:type
           rdf:resource="http://purl.org/dc/dcmitype/StillImage" />
        <dc:title></dc:title>
      </cc:Work>
    </rdf:RDF>
  </metadata>
  <defs
     id="defs4210" />
  <sodipodi:namedview
     pagecolor="#ffffff"
     bordercolor="#666666"
     borderopacity="1"
     objecttolerance="10"
     gridtolerance="10"
     guidetolerance="10"
     inkscape:pageopacity="0"
     inkscape:pageshadow="2"
     inkscape:window-width="1855"
     inkscape:window-height="1056"
     id="namedview4208"
     showgrid="false"
     inkscape:zoom="4.6666667"
     inkscape:cx="234.75628"
     inkscape:cy="169.17669"
     inkscape:window-x="65"
     inkscape:window-y="24"
     inkscape:window-maximized="1"
     inkscape:current-layer="svg4206" />
  <g
     id="g4994"
     transform="matrix(0.99000129,0,0,0.95403227,1.5033366,9.0838352)"
     inkscape:export-filename="/home/binayak/projects/mode/app/static/img/favicon.png"
     inkscape:export-xdpi="857.16254"
     inkscape:export-ydpi="857.16254">
    <rect
       y="176.3535"
       x="175.31198"
       height="39.092903"
       width="55.911942"
       id="rect4992"
       style="opacity:1;fill:#ffffff;fill-opacity:1;stroke:none;stroke-width:5.5999999;stroke-linecap:round;stroke-miterlimit:4;stroke-dasharray:none;stroke-opacity:1" />
    <path
       inkscape:connector-curvature="0"
       id="path4232"
       d="m 209.96085,142.12807 c -0.56964,0 -1.44082,2.7614 -1.9392,6.1359 -1.42663,9.65925 -2.85469,11.42435 -6.33278,7.82381 -1.59256,-1.64866 -3.2763,-4.36346 -3.74018,-6.03538 -1.10756,-3.9916 -3.49726,-3.91187 -3.49726,0.1173 0,4.51423 -1.90447,5.26264 -6.58406,2.59257 -5.08635,-2.90219 -16.18199,-5.03705 -16.16698,-3.11193 0.004,0.78561 2.24685,3.16916 4.97994,5.29824 6.93886,5.40548 6.30829,7.27021 -2.14442,6.34113 -6.71389,-0.73794 -7.11181,-0.56958 -7.11181,3.04494 0,3.3826 -0.66546,3.83231 -5.69195,3.83231 -6.8017,0 -7.1239,1.42502 -1.41985,6.24901 2.34718,1.98508 4.26372,4.30692 4.26372,5.16003 0,0.85312 -3.19978,3.40759 -7.11178,5.67519 -3.91201,2.26763 -7.1118,4.84137 -7.1118,5.72127 0,0.8799 0.48123,1.51326 1.06803,1.40728 3.44741,-0.62265 6.04377,0.51012 6.04377,2.63447 0,1.51875 -1.34305,2.4418 -3.55589,2.4418 -4.45144,0 -4.6477,3.6555 -0.37276,6.90238 2.73693,2.07876 2.91069,2.78531 1.26068,5.0595 -2.29524,3.16354 -1.15134,7.56415 1.96432,7.56415 1.76244,0 1.91854,0.66037 0.75392,3.14962 -2.39638,5.12199 -1.7877,6.76632 2.08578,5.65426 3.23036,-0.92744 3.55591,-0.5485 3.55591,4.11293 0,4.98369 0.14475,5.10029 4.97992,4.0627 4.82344,-1.03511 4.97574,-0.90911 4.97574,3.99567 0,5.94848 1.13579,6.25481 6.21131,1.6879 l 3.74855,-3.37162 0,5.00088 c 0,4.93707 3.02714,6.98592 4.97994,3.37162 1.4812,-2.74148 4.73387,-1.81278 5.68775,1.62506 1.22044,4.39842 3.28297,4.09745 5.21868,-0.76228 1.81161,-4.54822 3.60303,-3.98387 5.50346,1.73397 0.71478,2.15054 1.98654,3.91191 2.82713,3.91191 2.74212,0 9.75189,-4.81686 11.14099,-7.65628 1.21415,-2.48176 1.77994,-2.52746 5.40295,-0.45652 2.22665,1.2728 4.52715,2.57966 5.11395,2.9067 0.58678,0.32705 1.06803,-1.32047 1.06803,-3.6606 0,-4.85612 1.41676,-5.73013 11.63101,-7.17882 4.03691,-0.57254 7.54972,-1.77299 7.80705,-2.66796 0.25731,-0.89498 -1.87226,-3.09364 -4.73282,-4.8836 -2.86053,-1.78997 -5.13929,-3.93504 -5.06788,-4.77051 0.0714,-0.83547 2.83905,-2.66907 6.15266,-4.07107 7.14142,-3.02154 8.48448,-5.82892 3.47632,-7.26676 -4.75171,-1.36422 -4.57716,-2.52989 1.36121,-9.11382 5.91005,-6.55251 6.18844,-8.13375 1.42403,-8.13375 -4.5274,0 -4.51854,-2.39104 0.0294,-7.21231 3.036,-3.21853 3.23723,-3.95662 1.30677,-4.80404 -1.25455,-0.55066 -3.82926,-1.00099 -5.72127,-1.00099 -3.94223,0 -4.2014,-1.15238 -1.26068,-5.59981 2.28561,-3.45672 2.75574,-8.38122 0.92562,-9.67506 -0.63855,-0.45143 -3.67581,0.16833 -6.75161,1.37796 -3.07584,1.20957 -6.07482,1.85708 -6.66364,1.44078 -2.041,-1.4429 -1.05825,-7.08646 1.80518,-10.36194 2.49325,-2.85203 2.58072,-3.42242 0.64501,-4.27211 -3.55757,-1.56161 -13.4594,0.53165 -16.26751,3.43863 -2.42891,2.51443 -2.74933,2.16268 -5.84273,-6.37465 -1.79971,-4.96697 -3.74014,-9.03004 -4.30978,-9.03004 z m -21.90919,40.6813 c 4.98837,0 10.66769,6.77474 10.66769,12.72416 0,2.60494 -1.32699,6.66771 -2.94859,9.02588 -3.69431,5.37239 -11.30705,5.87571 -15.54292,1.03033 -6.39736,-7.31793 -1.08682,-22.78037 7.82382,-22.78037 z m 29.27646,0.004 c 3.11935,0.17863 5.86079,2.41842 7.76099,6.62176 2.83358,6.26812 2.6165,10.05831 -0.86697,15.12409 -3.69436,5.3724 -11.31124,5.87572 -15.54711,1.03034 -4.35031,-4.97632 -3.87745,-15.10589 0.90467,-19.40875 2.66718,-2.39989 5.32228,-3.50638 7.74842,-3.36744 z m -3.96636,4.97576 c -4.32486,-0.1366 -7.6066,5.99333 -4.14226,12.04146 2.9169,5.09237 5.71983,5.25773 8.6238,0.51515 2.79605,-4.56716 2.79172,-6.88063 -0.0214,-10.09806 -1.46267,-1.67315 -3.01894,-2.413 -4.46058,-2.45855 z m -22.906,0.21779 c -2.18447,-0.12395 -4.09365,1.57845 -5.12652,4.93804 -1.07245,3.48825 -0.80682,5.10159 1.26069,7.71492 3.25769,4.11767 4.29915,4.1252 7.8615,0.0502 3.56841,-4.08202 3.59543,-6.85305 0.10464,-10.46665 -1.38073,-1.42937 -2.78968,-2.16225 -4.10038,-2.23658 z"
       style="fill-opacity:1;stroke:#ffffff;stroke-width:1.028965;stroke-opacity:1" />
  </g>
</svg>
